<?xml version="1.0" standalone="no"?>
<!DOCTYPE svg PUBLIC "-//W3C//DTD SVG 20010904//EN"
 "http://www.w3.org/TR/2001/REC-SVG-20010904/DTD/svg10.dtd">
<svg version="1.0" xmlns="http://www.w3.org/2000/svg"
 width="5056.000000pt" height="5056.000000pt" viewBox="0 0 5056.000000 5056.000000"
 preserveAspectRatio="xMidYMid meet">
<metadata>
Created by potrace 1.14, written by Peter Selinger 2001-2017
</metadata>
<g transform="translate(0.000000,5056.000000) scale(0.100000,-0.100000)"
fill="#000000" stroke="none">
<path d="M29004 48995 c-490 -49 -906 -214 -1317 -524 -666 -500 -1060 -1139
-1179 -1907 -32 -210 -32 -573 0 -779 110 -698 448 -1323 1009 -1868 478 -465
1034 -749 1634 -837 268 -39 601 -26 877 36 503 112 940 348 1414 761 440 384
772 891 902 1373 99 370 92 770 -19 1205 -53 208 -154 493 -172 487 -4 -2
-237 -197 -518 -434 -329 -277 -509 -436 -508 -447 1 -9 11 -47 22 -86 30
-105 28 -281 -4 -440 -57 -281 -160 -477 -363 -687 -250 -259 -545 -435 -837
-499 -35 -8 -122 -13 -210 -13 -132 0 -162 3 -250 27 -123 33 -308 124 -429
211 -103 75 -307 255 -353 312 l-31 39 481 405 c264 223 719 608 1012 855 293
248 776 655 1073 905 298 250 541 458 541 462 1 4 -36 53 -81 110 -498 629
-1114 1061 -1774 1246 -160 46 -297 71 -468 87 -178 18 -274 17 -452 0z m156
-1271 c157 -29 356 -113 525 -220 114 -72 277 -194 273 -204 -2 -5 -53 -50
-114 -102 -61 -51 -151 -127 -200 -168 -49 -42 -348 -294 -664 -561 -316 -267
-656 -553 -755 -637 -99 -84 -183 -152 -188 -152 -25 0 -180 289 -223 416 -96
288 -71 613 71 895 50 100 114 187 210 288 230 241 475 393 716 446 87 18 249
18 349 -1z"/>
<path d="M24894 45923 c-148 -126 -421 -356 -606 -512 l-336 -283 63 -137 c35
-75 82 -176 105 -226 23 -49 179 -385 347 -745 168 -360 337 -722 375 -805 39
-82 83 -177 98 -210 33 -72 405 -869 568 -1218 70 -151 112 -251 106 -257 -5
-5 -89 49 -214 139 -113 81 -448 322 -745 536 -297 214 -666 479 -820 590
-261 188 -847 609 -995 715 -36 26 -147 106 -248 178 -117 85 -188 130 -196
125 -7 -5 -95 -78 -197 -164 -101 -86 -350 -297 -554 -468 -203 -172 -374
-317 -378 -324 -9 -12 133 -301 1187 -2421 313 -630 552 -1124 548 -1128 -5
-5 -724 486 -1642 1122 -1426 987 -1635 1128 -1649 1116 -9 -7 -290 -244 -624
-526 -335 -282 -605 -516 -600 -521 4 -4 163 -105 353 -225 501 -316 1193
-752 1680 -1059 1150 -725 1421 -895 1431 -895 6 0 72 57 148 128 237 220 717
636 927 802 17 14 96 77 175 140 162 131 470 366 632 484 59 43 107 81 107 86
0 4 -59 128 -131 276 -72 148 -261 539 -422 869 -160 330 -312 643 -338 695
-26 52 -43 99 -39 104 5 5 426 -284 939 -643 512 -358 934 -652 939 -653 5 -2
62 30 128 71 594 370 1054 627 1638 917 181 90 333 165 338 166 9 3 -1804
4362 -1821 4381 -4 4 -129 -95 -277 -220z"/>
<path d="M31635 42809 c-848 -34 -1822 -212 -2715 -496 -96 -30 -191 -60 -210
-65 -65 -19 -475 -166 -645 -231 -1824 -702 -3669 -1826 -5320 -3241 -636
-545 -1286 -1179 -1827 -1781 -807 -899 -1486 -1838 -2019 -2791 -132 -237
-381 -737 -474 -954 -37 -85 -71 -160 -76 -166 -5 -6 -78 -16 -161 -23 -84 -6
-238 -19 -343 -27 -208 -16 -280 -28 -490 -81 -548 -137 -1466 -448 -2325
-788 -1963 -776 -3392 -1574 -3895 -2175 -307 -367 -311 -673 -13 -913 200
-159 491 -212 1498 -272 1185 -70 1808 -189 2312 -440 173 -87 165 -53 65
-277 -555 -1248 -738 -2257 -611 -3363 15 -130 19 -164 50 -350 53 -334 180
-872 310 -1324 13 -46 22 -86 19 -89 -7 -7 -65 39 -135 110 -81 82 -257 317
-402 538 -470 717 -756 1486 -862 2320 -37 289 -41 351 -40 750 0 312 4 445
18 580 41 410 116 835 211 1193 17 61 20 87 12 88 -7 0 -59 6 -117 13 -58 7
-106 12 -106 12 -6 -4 -92 -384 -123 -543 -173 -878 -180 -1734 -20 -2528 68
-337 164 -662 289 -975 188 -469 407 -863 726 -1305 176 -243 286 -372 359
-417 86 -54 172 -98 230 -118 l50 -17 67 -229 c37 -126 109 -370 159 -543 l90
-314 -10 -126 c-40 -483 -66 -900 -101 -1616 -50 -1008 -32 -2059 51 -2965 27
-303 75 -694 124 -1010 149 -977 404 -2061 782 -3320 47 -157 126 -413 175
-570 50 -157 93 -295 95 -307 15 -66 -92 -565 -187 -868 -152 -489 -430 -1121
-785 -1785 -127 -239 -264 -492 -318 -590 -277 -502 -627 -1187 -761 -1490
-270 -609 -434 -1132 -510 -1625 -37 -238 -41 -305 -41 -635 0 -352 6 -426 52
-690 21 -119 32 -158 64 -220 89 -173 242 -306 408 -357 67 -20 190 -17 254 7
141 53 221 180 272 431 166 816 546 1438 1232 2016 153 129 396 313 708 536
608 434 844 653 1019 947 111 187 165 379 173 617 l5 152 75 -68 c272 -251
556 -366 938 -378 320 -10 552 31 1232 218 650 179 963 230 1273 210 102 -7
110 -10 287 -84 566 -239 977 -358 1145 -333 170 26 141 177 -87 451 -411 495
-1543 1403 -2244 1799 -48 28 -152 71 -243 102 -586 199 -1005 441 -1325 766
-320 324 -490 658 -575 1131 -30 167 -32 593 -4 792 122 876 522 1834 1313
3145 239 396 353 574 937 1465 177 269 362 554 412 632 l89 141 170 77 c377
172 755 378 1245 680 227 140 824 549 1300 890 1368 979 1795 1260 2470 1623
363 194 902 273 1672 244 387 -15 604 -31 1458 -107 91 -8 230 -20 310 -25 80
-6 204 -15 275 -21 177 -14 841 -20 995 -8 465 34 802 129 1053 296 318 211
476 524 503 996 5 102 3 120 -20 200 -96 324 -309 528 -645 618 -182 48 -312
60 -781 69 -517 10 -597 14 -781 41 -225 32 -396 89 -614 203 -157 82 -238
140 -322 230 -148 159 -178 316 -94 500 103 226 385 476 831 736 265 154 631
332 970 470 85 35 163 71 174 79 10 9 71 95 136 191 65 96 126 182 136 192 11
9 57 32 104 51 386 159 1317 397 2460 628 113 22 291 61 395 85 243 56 866
198 1013 229 61 14 163 36 225 50 877 192 2120 432 3937 760 435 78 536 97
945 171 138 25 324 59 415 75 627 114 1601 299 2094 399 117 24 270 63 367 95
496 161 922 235 1359 235 579 0 1124 -129 1829 -433 l164 -71 66 23 c158 55
385 159 796 366 242 121 486 238 543 258 477 173 855 136 1352 -134 l85 -46
80 8 c205 22 349 81 454 186 116 116 156 233 148 423 -10 250 -134 507 -347
720 -159 159 -341 266 -537 316 -81 21 -137 26 -323 34 -387 16 -694 48 -1305
136 -1193 173 -1337 191 -1760 219 -381 26 -816 16 -1110 -25 -82 -12 -317
-57 -319 -62 -1 -2 -12 -43 -24 -93 -27 -109 -63 -183 -119 -245 -61 -67 -23
-58 -508 -135 -88 -14 -200 -32 -250 -40 -92 -15 -238 -38 -615 -99 -118 -19
-332 -53 -475 -76 -143 -23 -354 -57 -470 -75 -115 -19 -271 -44 -345 -55 -74
-11 -189 -29 -255 -40 -66 -10 -192 -30 -280 -44 -88 -14 -234 -36 -325 -51
-91 -14 -208 -32 -260 -40 -52 -9 -122 -20 -155 -25 -33 -5 -134 -21 -225 -35
-91 -14 -235 -36 -320 -50 -85 -13 -245 -38 -355 -55 -110 -17 -225 -35 -255
-40 -30 -5 -202 -33 -383 -60 l-327 -51 -118 79 c-1038 697 -2323 1339 -3737
1867 -637 238 -1404 496 -2070 696 -77 23 -146 44 -152 46 -10 4 -13 -14 -13
-68 0 -41 4 -79 8 -86 4 -7 143 -58 307 -114 1317 -445 2572 -955 3740 -1519
94 -45 224 -108 290 -140 257 -123 1304 -584 1655 -728 43 -18 69 -33 60 -36
-8 -3 -438 -70 -955 -150 -517 -81 -967 -151 -1000 -156 -33 -5 -118 -19 -190
-30 -71 -11 -157 -24 -190 -30 -57 -9 -282 -44 -485 -76 -52 -8 -122 -19 -155
-24 -33 -5 -133 -21 -223 -35 -166 -25 -350 -54 -642 -100 -534 -84 -2866
-447 -2920 -455 -36 -6 -105 -16 -155 -24 -150 -24 -746 -117 -805 -126 -30
-5 -100 -16 -155 -24 -178 -28 -418 -66 -525 -82 -57 -8 -108 -18 -113 -21
-12 -8 -72 63 -105 126 -109 204 -90 511 45 734 83 136 250 274 443 365 131
62 314 124 560 192 569 157 704 200 886 285 97 45 211 115 280 171 55 44 106
151 135 282 l23 103 -23 77 c-44 153 -160 362 -278 501 -21 25 -33 42 -27 38
20 -12 143 166 199 289 233 508 165 1162 -194 1884 -331 665 -872 1292 -1443
1674 l-106 71 46 78 c26 42 51 76 57 74 5 -2 58 80 118 182 330 561 678 1144
935 1566 842 1381 1589 2407 2392 3290 187 205 217 235 295 293 95 70 219 139
541 300 446 225 607 340 681 489 24 50 28 70 28 144 0 81 -3 91 -43 171 l-42
86 -117 74 c-835 528 -1732 825 -2783 923 -343 31 -677 39 -1045 24z m750
-480 c180 -11 452 -35 565 -50 283 -37 487 -72 710 -120 80 -17 157 -34 173
-36 15 -3 27 -9 27 -14 0 -16 -94 -72 -233 -139 -227 -110 -681 -293 -1347
-544 -63 -24 -155 -60 -205 -79 -49 -20 -173 -68 -275 -107 -1656 -642 -2398
-1035 -2487 -1317 -15 -48 -15 -55 1 -97 16 -41 85 -116 108 -116 4 0 8 -4 8
-9 0 -5 -33 -24 -72 -42 -158 -71 -450 -222 -583 -300 -430 -252 -728 -479
-1045 -798 -559 -562 -909 -1236 -1069 -2061 -83 -427 -103 -732 -102 -1559 1
-338 -3 -672 -9 -741 -23 -281 -72 -426 -178 -521 -67 -60 -122 -78 -294 -94
-725 -70 -1403 -503 -1692 -1082 -24 -48 -52 -112 -62 -141 -18 -51 -20 -52
-89 -79 -354 -134 -712 -370 -1006 -663 -377 -376 -640 -806 -819 -1340 -28
-82 -50 -154 -50 -161 0 -9 24 -10 94 -5 117 8 183 27 240 71 l44 34 7 -38
c16 -95 135 -139 235 -88 42 20 48 29 83 112 114 271 298 597 457 810 101 135
333 366 440 438 47 31 90 57 97 57 6 0 17 -17 25 -37 19 -54 16 -354 -5 -523
-59 -466 -72 -644 -58 -776 18 -171 65 -237 168 -235 31 0 60 4 64 8 10 10 23
74 45 222 37 251 48 397 89 1182 22 417 45 605 102 824 52 200 137 385 243
526 65 87 227 241 320 305 148 102 373 209 575 273 187 60 523 137 537 123 6
-6 -3 -75 -32 -252 -34 -206 -104 -550 -186 -905 -219 -951 -223 -971 -279
-1270 -54 -292 -93 -578 -110 -819 -5 -71 -4 -88 7 -84 7 3 43 15 80 27 60 20
67 25 74 54 19 88 168 558 268 844 81 231 232 619 511 1308 226 560 359 916
479 1284 l66 203 -6 167 c-11 291 19 920 61 1285 126 1072 440 1936 955 2627
432 579 992 1039 1727 1416 833 428 1832 741 3292 1033 406 81 669 129 704
130 18 0 18 -1 0 -24 -137 -181 -396 -526 -489 -656 -111 -153 -151 -208 -291
-410 -116 -166 -670 -1000 -813 -1225 -480 -753 -935 -1503 -1885 -3105 -861
-1452 -1313 -2195 -1758 -2890 -175 -273 -643 -974 -738 -1104 l-65 -90 -124
-54 c-869 -377 -1389 -612 -1989 -898 l-133 -64 6 -83 c13 -155 -19 -508 -70
-787 -70 -379 -165 -684 -434 -1390 -164 -431 -176 -454 -461 -882 -232 -350
-378 -535 -652 -829 -247 -266 -466 -432 -650 -494 -82 -27 -127 -31 -176 -14
-97 34 -67 155 137 560 249 495 518 1099 599 1344 25 77 75 217 111 310 247
651 281 813 356 1705 8 96 20 237 27 313 12 151 12 154 -45 185 -27 15 -58 17
-222 14 -152 -2 -201 0 -237 13 -63 21 -216 41 -462 59 -520 39 -652 58 -890
126 -74 21 -132 30 -220 34 -162 9 -493 39 -720 66 -403 48 -515 62 -610 75
-1537 203 -2375 207 -3154 14 -139 -34 -394 -113 -466 -144 -19 -9 -19 -8 -4
15 106 162 613 1090 1036 1895 750 1426 1006 1901 1318 2445 959 1673 1845
2845 2840 3756 199 182 750 614 1220 956 1372 998 2745 1773 4080 2303 1014
403 2024 668 2970 779 336 39 539 55 915 70 129 5 575 -3 755 -15z m-1717
-2411 c-7 -19 -456 -221 -758 -340 -145 -57 -221 -101 -570 -326 -472 -305
-686 -435 -857 -521 -45 -22 -84 -37 -87 -33 -3 5 39 51 92 104 235 231 404
339 961 614 183 91 352 178 375 193 79 55 287 169 379 209 165 73 478 140 465
100z m-3074 -1979 c-4 -44 -253 -756 -345 -985 -204 -509 -229 -616 -244
-1049 -22 -651 -106 -1433 -193 -1805 -34 -144 -58 -84 -103 250 -29 218 -32
681 -5 885 45 345 84 524 190 888 78 268 100 363 120 518 36 272 59 400 97
539 70 251 239 557 404 727 50 52 82 64 79 32z m2968 -3098 c391 -261 803
-689 1100 -1142 114 -174 182 -295 273 -483 308 -636 367 -1204 170 -1624 -42
-88 -123 -220 -150 -242 -10 -8 -31 0 -82 33 -230 149 -513 240 -878 282 -174
20 -617 20 -830 0 -317 -30 -623 -80 -984 -161 -313 -70 -925 -240 -958 -267
-7 -5 -13 -7 -13 -4 0 2 51 92 113 198 382 653 987 1622 1021 1635 31 12 983
-219 1741 -421 107 -29 589 -166 750 -214 93 -28 172 -51 176 -51 6 0 -19 151
-26 158 -6 6 -513 150 -1115 318 -327 91 -778 217 -1002 280 -223 63 -409 114
-412 114 -16 0 1 31 91 167 352 538 829 1315 818 1333 -7 11 74 160 87 160 4
0 53 -31 110 -69z m-6584 -3029 c-6 -15 -102 -96 -321 -271 -252 -201 -257
-207 -497 -601 -133 -218 -218 -343 -296 -434 -87 -102 -93 -90 -38 73 76 228
218 439 488 722 54 57 110 119 124 138 112 152 231 264 336 318 89 46 214 79
204 55z m-7103 -216 c183 -23 312 -43 445 -72 155 -33 175 -40 205 -75 22 -27
25 -39 25 -113 0 -171 -119 -463 -348 -851 -67 -113 -212 -336 -241 -369 -9
-10 -110 -82 -226 -159 -318 -213 -553 -386 -780 -575 -155 -130 -423 -407
-519 -537 -210 -283 -242 -293 -517 -165 -275 128 -706 245 -1124 305 -225 32
-530 57 -850 70 -82 3 -177 8 -210 10 -33 3 -148 10 -255 15 -514 27 -811 66
-1035 134 -118 36 -127 40 -173 87 -66 68 -87 119 -87 214 0 114 38 189 154
306 101 101 205 173 350 242 58 28 185 94 281 148 322 178 824 436 1100 563
1096 506 2079 786 2955 840 150 9 726 -3 850 -18z m28631 -637 c55 -23 109
-72 142 -128 35 -60 37 -164 5 -226 -45 -86 -136 -147 -238 -160 -52 -6 -65
-8 -330 -49 -88 -14 -236 -37 -330 -51 -93 -14 -213 -33 -265 -40 -52 -8 -165
-26 -250 -40 -145 -23 -641 -99 -845 -130 -49 -8 -268 -42 -485 -75 -217 -34
-451 -70 -520 -80 -258 -40 -1239 -191 -1330 -206 -52 -8 -122 -19 -155 -24
-33 -5 -103 -16 -155 -24 -95 -16 -646 -101 -750 -116 -82 -12 -771 -119 -875
-135 -49 -8 -238 -37 -420 -65 -181 -28 -357 -55 -390 -60 -33 -6 -265 -42
-515 -80 -250 -38 -482 -74 -515 -80 -33 -5 -251 -39 -485 -75 -234 -36 -452
-69 -485 -75 -55 -9 -529 -82 -755 -116 -135 -20 -776 -120 -960 -149 -219
-34 -743 -115 -820 -126 -75 -11 -615 -94 -705 -109 -85 -14 -194 -31 -675
-105 -234 -36 -495 -76 -580 -89 -85 -14 -274 -43 -420 -65 -146 -23 -292 -45
-325 -51 -33 -5 -136 -21 -230 -35 -177 -27 -447 -69 -550 -85 -94 -15 -235
-37 -420 -65 -93 -14 -197 -30 -230 -35 -78 -13 -164 -26 -675 -105 -234 -36
-452 -70 -485 -75 -87 -14 -217 -34 -515 -80 -282 -43 -353 -54 -453 -71 l-63
-11 8 -66 c9 -79 24 -119 49 -132 33 -18 38 -18 554 66 88 14 185 29 215 34
30 4 127 20 215 34 88 14 329 53 535 86 206 33 402 64 435 70 33 5 159 26 280
45 121 19 303 48 405 65 102 16 271 43 375 60 105 17 246 40 315 51 274 44
896 143 1220 195 85 13 223 35 305 49 83 13 222 36 310 50 88 14 286 45 440
70 447 72 593 96 995 160 442 70 465 74 625 100 83 14 308 50 500 80 193 31
447 71 565 91 118 19 287 46 375 60 88 14 270 43 405 65 135 22 286 46 335 54
50 8 146 23 215 34 69 11 197 32 285 46 88 14 228 36 310 50 83 13 222 36 310
50 88 14 259 41 380 60 364 59 449 72 715 115 140 22 309 49 375 60 66 11 192
31 280 45 88 14 228 36 310 50 203 33 293 47 625 100 157 25 326 52 375 60
151 24 511 82 680 109 88 14 259 42 380 61 250 41 393 63 615 99 85 13 256 41
380 61 338 54 511 82 655 105 72 11 184 29 250 40 66 10 221 35 345 55 124 20
261 42 305 50 44 8 141 24 215 35 160 25 329 52 500 79 405 65 515 84 519 87
2 2 -7 12 -20 23 -14 11 -38 43 -54 73 -26 46 -30 63 -30 128 0 58 6 85 23
117 35 66 78 110 140 140 50 25 68 28 152 28 75 0 104 -4 141 -21 189 -88 239
-311 101 -452 -60 -61 -124 -91 -221 -102 -42 -5 -175 -25 -296 -45 -121 -19
-305 -49 -410 -66 -104 -17 -260 -42 -345 -55 -85 -14 -180 -29 -210 -34 -30
-4 -199 -31 -375 -60 -176 -28 -390 -62 -475 -76 -320 -51 -409 -65 -555 -89
-82 -13 -222 -36 -310 -50 -145 -23 -388 -62 -815 -130 -220 -36 -260 -42
-400 -65 -69 -11 -208 -33 -310 -49 -230 -37 -477 -77 -595 -96 -144 -23 -267
-43 -465 -74 -102 -17 -329 -53 -505 -81 -176 -29 -385 -62 -465 -75 -958
-154 -1273 -204 -1340 -215 -30 -4 -127 -20 -215 -34 -442 -71 -987 -159
-1130 -181 -88 -14 -243 -39 -345 -56 -102 -16 -241 -39 -310 -50 -198 -31
-363 -58 -525 -84 -156 -25 -179 -29 -750 -120 -192 -31 -417 -67 -500 -80
-82 -14 -278 -45 -435 -70 -316 -50 -463 -74 -685 -110 -148 -24 -307 -50
-620 -100 -469 -74 -550 -87 -660 -105 -161 -26 -492 -79 -810 -130 -143 -23
-370 -59 -505 -81 -337 -54 -454 -73 -680 -109 -519 -83 -731 -117 -965 -155
-154 -25 -254 -41 -595 -95 -107 -17 -303 -49 -435 -70 -132 -22 -315 -51
-407 -66 l-168 -27 0 -42 c0 -84 51 -154 128 -174 93 -25 134 -23 367 18 325
58 311 55 730 126 377 63 812 138 1265 215 339 59 612 105 880 151 129 22 339
58 465 79 127 22 349 60 495 85 146 25 355 61 465 80 110 18 308 52 440 75
300 51 607 104 790 135 77 13 275 47 440 75 165 28 350 59 410 70 61 10 202
35 315 54 113 19 297 51 410 70 319 55 482 83 800 137 162 27 345 58 405 69
61 11 270 46 465 80 439 74 780 133 970 166 80 14 262 45 405 69 143 24 325
55 405 69 80 14 253 43 385 66 342 58 633 108 760 130 61 10 272 47 470 80
198 34 448 77 555 95 107 19 330 57 495 85 165 28 350 59 410 70 131 23 431
74 790 135 143 24 325 55 405 69 80 14 237 41 350 60 194 33 449 77 765 131
77 13 248 42 380 65 132 22 303 52 380 65 77 13 262 45 410 70 149 25 398 68
555 95 157 27 434 74 615 105 182 31 337 58 346 61 14 4 11 10 -14 37 -46 49
-67 103 -67 175 -1 233 297 355 490 202 127 -100 133 -281 13 -391 -72 -66
-29 -55 -698 -169 -165 -28 -322 -56 -350 -61 -27 -5 -77 -13 -110 -19 -33 -5
-181 -30 -330 -55 -247 -42 -340 -58 -760 -130 -77 -13 -273 -47 -435 -74
-162 -28 -335 -57 -385 -66 -49 -9 -196 -34 -325 -56 -129 -22 -325 -55 -435
-74 -405 -69 -565 -97 -795 -136 -225 -38 -457 -78 -695 -119 -60 -11 -231
-40 -380 -65 -318 -54 -487 -83 -725 -124 -96 -17 -267 -46 -380 -65 -113 -19
-313 -54 -445 -76 -132 -23 -346 -59 -475 -81 -129 -22 -350 -60 -490 -84
-140 -24 -390 -67 -555 -95 -165 -28 -349 -59 -410 -70 -60 -11 -217 -37 -347
-60 -131 -22 -345 -58 -475 -80 -131 -23 -287 -49 -348 -60 -152 -26 -468 -81
-790 -135 -148 -25 -308 -53 -355 -61 -47 -8 -204 -35 -350 -60 -146 -25 -328
-56 -405 -69 -195 -34 -623 -107 -995 -170 -652 -111 -860 -147 -1030 -176
-96 -17 -224 -39 -285 -49 -250 -42 -884 -151 -1140 -195 -77 -13 -248 -43
-380 -65 -358 -61 -637 -109 -760 -130 -60 -11 -231 -40 -380 -65 -148 -25
-335 -57 -415 -71 -80 -14 -289 -49 -465 -79 -176 -30 -453 -78 -615 -106
-162 -27 -383 -65 -491 -83 -108 -18 -201 -36 -207 -40 -32 -20 5 -152 58
-207 46 -48 79 -56 154 -36 34 8 111 23 171 32 130 20 334 56 935 165 245 45
492 90 550 100 58 10 193 34 300 54 107 20 470 86 805 146 336 61 745 135 910
165 165 30 413 75 550 100 138 26 286 52 330 60 81 14 566 102 1080 196 154
28 377 68 495 90 118 21 238 43 265 48 28 6 151 28 275 51 373 67 1038 187
1330 240 644 117 1222 222 1320 240 143 25 641 115 1525 276 407 74 787 143
845 154 240 43 599 108 1030 186 240 44 308 56 520 94 58 11 305 56 550 100
245 45 468 85 495 90 66 11 499 90 800 146 132 24 290 52 350 63 159 28 223
40 805 145 498 91 617 112 1215 222 138 25 273 49 300 54 47 8 1127 203 1300
235 44 8 168 31 275 50 107 20 201 38 208 40 10 4 5 15 -17 40 -51 59 -65 94
-65 170 -1 85 22 134 89 193 76 67 179 92 274 68 143 -37 221 -129 221 -262 0
-72 -11 -102 -57 -161 -36 -45 -138 -103 -182 -103 -15 0 -85 -11 -156 -24
-215 -40 -642 -118 -2295 -416 -124 -23 -245 -45 -270 -50 -25 -5 -146 -27
-270 -50 -324 -58 -2060 -372 -2350 -425 -135 -25 -445 -81 -690 -125 -245
-45 -566 -103 -715 -130 -299 -55 -1035 -188 -1245 -226 -74 -13 -171 -31
-215 -39 -138 -24 -579 -105 -855 -155 -146 -27 -332 -60 -415 -75 -82 -14
-170 -30 -195 -35 -61 -12 -113 -22 -880 -160 -366 -67 -777 -141 -915 -166
-137 -25 -335 -61 -440 -80 -104 -19 -226 -41 -270 -49 -145 -27 -1019 -186
-1070 -195 -27 -4 -225 -40 -440 -79 -214 -39 -700 -127 -1080 -196 -379 -68
-726 -131 -770 -140 -44 -8 -141 -26 -215 -39 -130 -24 -415 -75 -945 -172
-137 -25 -297 -53 -355 -64 -242 -43 -1187 -214 -1265 -229 -27 -6 -151 -28
-275 -50 -124 -23 -337 -61 -475 -86 -137 -26 -286 -52 -330 -60 -200 -35
-472 -86 -489 -91 -16 -5 -18 -14 -13 -70 2 -35 13 -78 24 -96 21 -37 92 -78
134 -78 15 0 121 18 236 40 228 44 563 109 888 171 116 22 230 44 255 49 25 5
131 26 235 45 105 20 222 42 260 50 39 8 167 33 285 55 118 22 235 45 260 50
25 5 128 25 230 44 102 20 327 63 500 96 173 34 466 90 650 125 184 35 405 77
490 94 85 17 261 51 390 75 234 45 962 185 1200 231 69 13 222 42 340 65 118
22 235 45 260 50 25 5 142 28 260 50 118 23 332 64 475 91 143 28 377 72 520
100 143 27 292 56 330 64 39 8 156 30 260 50 105 19 222 42 260 50 39 8 133
26 210 40 77 14 160 30 185 35 25 5 142 28 260 50 118 22 235 45 260 50 39 9
297 58 1095 210 116 22 230 45 255 50 25 5 131 26 235 45 105 20 222 42 260
50 39 8 156 30 260 50 105 20 222 42 260 50 39 8 156 30 260 50 176 33 306 58
625 120 113 22 1116 215 1645 316 116 22 289 55 385 74 96 19 272 52 390 75
118 22 235 45 260 50 25 5 104 20 175 34 222 42 549 105 815 156 140 27 491
95 780 150 289 55 557 107 595 115 39 8 156 30 260 50 105 19 222 42 260 49
39 8 131 26 205 40 74 14 216 41 315 60 345 67 441 85 655 126 118 23 258 49
310 60 52 10 185 35 295 56 110 20 202 39 204 41 3 2 -5 13 -16 26 -37 40 -53
84 -53 147 0 144 111 237 273 229 92 -5 156 -40 205 -113 62 -93 37 -221 -57
-293 -47 -37 -61 -41 -261 -78 -199 -37 -441 -83 -525 -100 -38 -8 -167 -33
-285 -55 -118 -22 -235 -45 -260 -50 -25 -5 -130 -26 -235 -45 -104 -20 -221
-42 -260 -50 -38 -8 -153 -30 -255 -49 -220 -42 -1179 -226 -1540 -296 -231
-45 -508 -98 -865 -166 -122 -23 -212 -41 -517 -99 -303 -59 -395 -76 -515
-99 -462 -89 -626 -120 -763 -147 -85 -17 -306 -59 -490 -94 -184 -35 -429
-82 -545 -105 -115 -22 -246 -48 -290 -56 -284 -54 -564 -108 -650 -124 -91
-18 -232 -45 -590 -114 -71 -14 -227 -43 -345 -66 -118 -22 -235 -45 -260 -50
-25 -5 -142 -28 -260 -50 -118 -22 -246 -47 -285 -55 -38 -8 -133 -26 -210
-40 -77 -15 -194 -37 -260 -50 -66 -13 -205 -40 -310 -60 -104 -20 -257 -49
-340 -65 -152 -29 -423 -81 -860 -165 -132 -26 -296 -57 -365 -70 -184 -35
-1308 -252 -1425 -274 -55 -11 -185 -36 -290 -56 -199 -38 -480 -92 -800 -155
-27 -5 -144 -27 -260 -49 -375 -72 -2038 -391 -2115 -406 -41 -8 -133 -26
-205 -40 -71 -14 -152 -29 -180 -35 -77 -15 -546 -105 -785 -150 -118 -23
-294 -56 -390 -75 -154 -30 -732 -141 -1090 -210 -195 -37 -383 -73 -525 -101
-71 -13 -157 -29 -189 -35 -74 -12 -94 -23 -102 -53 -11 -45 82 -195 121 -196
11 0 265 50 565 110 300 61 655 133 790 160 135 27 468 94 740 149 272 55 920
186 1440 291 1277 258 1188 240 2053 414 422 86 935 189 1140 230 204 42 541
110 747 151 206 42 652 132 990 200 338 69 962 194 1385 280 424 85 925 187
1115 225 190 38 669 135 1065 215 396 80 909 184 1140 230 231 47 710 143
1065 215 355 72 778 157 940 190 162 32 642 129 1065 215 424 85 939 189 1145
231 206 41 627 127 935 189 308 62 844 170 1190 240 1257 254 1395 282 1400
287 3 3 1 17 -5 32 -15 40 -12 111 5 153 26 63 62 100 126 132 186 93 410 -26
409 -216 -1 -87 -55 -169 -144 -216 -53 -28 -203 -32 -251 -6 -25 15 -35 15
-75 4 -66 -19 -156 -33 -320 -50 -80 -9 -246 -36 -370 -61 -124 -25 -502 -101
-840 -170 -338 -68 -928 -187 -1310 -264 -382 -77 -828 -167 -990 -200 -162
-33 -641 -129 -1065 -215 -423 -85 -903 -182 -1065 -215 -162 -33 -641 -129
-1065 -215 -423 -85 -903 -182 -1065 -215 -162 -32 -497 -100 -745 -150 -247
-50 -727 -147 -1065 -215 -338 -69 -838 -169 -1110 -224 -272 -55 -898 -182
-1390 -281 -1160 -234 -1256 -253 -2080 -420 -382 -77 -828 -167 -990 -200
-162 -33 -641 -129 -1065 -215 -423 -85 -959 -193 -1190 -240 -362 -73 -973
-196 -1960 -396 -137 -28 -393 -79 -568 -115 -175 -35 -342 -71 -370 -79 -29
-8 -97 -21 -152 -30 -55 -8 -122 -20 -149 -26 l-48 -12 6 -37 c3 -21 24 -95
46 -166 46 -145 58 -237 41 -302 -19 -68 -152 -202 -250 -250 -69 -34 -82 -37
-160 -37 -74 0 -94 4 -143 28 -145 71 -286 267 -344 475 -21 75 -32 82 -135
82 -94 0 -223 -22 -414 -70 -214 -55 -267 -66 -419 -85 -70 -9 -160 -27 -200
-40 -39 -12 -102 -26 -141 -30 -116 -11 -255 -44 -286 -66 -16 -11 -36 -34
-45 -50 -14 -28 -13 -34 7 -87 16 -41 23 -79 23 -137 1 -70 -3 -88 -30 -145
-75 -157 -247 -254 -449 -254 -113 1 -165 15 -216 61 -48 44 -78 99 -113 213
-15 47 -36 109 -47 138 l-21 52 -113 0 c-109 0 -257 -22 -281 -41 -13 -11
-164 -44 -244 -54 -30 -4 -100 -17 -155 -30 -55 -13 -147 -30 -205 -39 -147
-23 -189 -32 -235 -50 -22 -8 -62 -15 -90 -16 -27 0 -90 -10 -140 -21 -49 -11
-113 -24 -141 -29 -131 -21 -180 -90 -205 -285 -28 -229 -32 -248 -61 -306
-51 -102 -131 -137 -292 -126 -94 7 -255 45 -315 75 -19 9 -43 28 -53 42 -22
31 -38 112 -38 196 0 84 -22 138 -65 158 -45 22 -77 20 -189 -9 -53 -14 -125
-27 -159 -29 -65 -4 -235 -37 -326 -63 -61 -17 -101 -51 -101 -85 0 -37 -45
-122 -85 -163 -78 -77 -204 -115 -492 -149 -139 -17 -224 -35 -543 -118 -164
-43 -210 -51 -290 -52 -100 -1 -172 17 -203 52 -43 48 -178 515 -252 872 -47
228 -54 263 -110 565 -76 405 -124 632 -185 875 -57 225 -59 260 -15 336 102
175 427 283 1050 349 83 8 205 22 272 30 187 23 216 21 258 -16 37 -33 50 -68
75 -199 13 -72 28 -106 59 -134 22 -20 23 -20 119 4 54 13 139 25 191 27 51 2
125 11 165 19 103 22 480 82 556 88 156 14 173 19 266 95 94 76 207 140 293
165 86 25 226 21 305 -8 35 -14 76 -32 90 -41 40 -26 358 -15 566 19 85 14
158 26 162 26 4 0 -2 -23 -14 -50 -14 -34 -28 -52 -42 -55 -12 -2 -70 -11
-131 -20 -60 -9 -132 -20 -160 -25 -27 -5 -88 -14 -135 -21 -121 -17 -136 -26
-151 -96 -14 -70 1 -125 43 -156 27 -20 30 -20 125 -4 237 39 295 48 300 44 4
-4 -32 -83 -43 -96 -2 -2 -90 -17 -195 -35 l-193 -31 -20 -35 c-31 -52 -29
-179 2 -238 13 -24 29 -45 37 -48 7 -3 51 2 97 10 47 9 90 16 96 16 12 0 -25
-89 -41 -101 -5 -3 -47 -12 -95 -19 -48 -7 -93 -17 -99 -23 -9 -7 -13 -45 -13
-127 0 -102 3 -121 20 -143 l20 -25 -34 -75 c-49 -108 -77 -210 -78 -282 0
-97 34 -148 130 -191 2 -1 -11 -21 -27 -45 -55 -78 -58 -183 -8 -236 11 -13
31 -23 45 -23 13 0 214 38 446 85 231 47 601 122 821 166 220 45 406 86 414
92 17 15 11 62 -25 177 -17 57 -32 90 -41 90 -8 0 -44 -7 -81 -15 -37 -8 -164
-33 -282 -55 -118 -22 -235 -45 -260 -50 -25 -5 -142 -28 -260 -50 -118 -22
-234 -45 -257 -50 -23 -6 -54 -10 -70 -10 -26 1 -26 1 -8 12 11 6 56 34 100
63 75 49 88 54 215 79 215 41 479 92 688 132 184 35 193 38 188 58 -16 53 -36
160 -36 186 0 35 -50 80 -88 80 -15 0 -72 -9 -127 -19 -163 -32 -329 -60 -332
-57 -2 1 21 30 51 62 l54 60 94 12 c136 18 204 40 244 77 29 28 34 39 34 79 0
53 -30 139 -60 171 l-20 22 184 275 c252 378 323 503 401 711 l18 48 21 -20
c40 -37 127 -37 366 2 118 20 242 38 274 42 33 4 91 15 130 26 39 10 92 19
118 19 50 0 255 30 373 55 39 8 100 17 137 21 67 5 67 6 108 59 56 73 188 198
253 239 76 49 187 86 256 86 117 0 229 -59 281 -147 24 -41 90 -75 144 -74 54
0 280 37 379 61 42 11 84 17 91 14 8 -3 91 6 183 20 259 40 281 44 383 60 52
9 201 31 330 51 129 19 276 42 325 50 50 8 239 37 420 65 182 28 357 55 390
60 33 5 222 35 420 65 198 30 387 59 420 65 33 5 251 39 485 75 234 36 452 70
485 75 83 14 198 31 580 90 182 28 357 55 390 60 81 13 216 34 420 65 94 14
197 30 230 35 104 17 241 38 515 80 146 22 335 51 420 65 323 50 482 75 710
110 129 19 276 42 325 50 50 8 239 37 420 65 182 28 357 55 390 60 103 17 240
38 545 85 162 25 471 72 685 106 215 33 431 66 480 74 50 7 225 34 390 59 165
25 327 50 360 56 33 5 103 16 155 24 52 8 167 26 255 40 88 14 237 37 330 51
94 14 197 30 230 35 33 6 251 39 485 75 234 36 466 72 515 80 50 8 239 37 420
65 182 28 400 62 485 75 161 26 685 106 850 131 52 8 136 21 185 29 50 8 209
32 355 55 146 22 292 44 325 50 33 5 251 39 485 75 234 36 452 70 485 75 33 5
222 35 420 65 198 30 384 59 414 65 30 5 67 10 83 10 15 0 28 3 28 6 0 4 -14
22 -31 42 -44 50 -59 92 -59 164 0 172 145 288 335 270 28 -3 68 -13 91 -23z
m-22772 -6935 c77 -19 171 -65 230 -114 322 -267 318 -818 -9 -1034 -78 -53
-167 -83 -284 -97 -342 -43 -625 147 -697 467 -21 98 -15 279 14 370 62 195
205 342 392 403 89 28 248 31 354 5z m-3223 -1364 c199 -38 362 -201 494 -495
50 -113 65 -176 65 -279 0 -521 -576 -1520 -1183 -2054 -191 -168 -393 -297
-526 -336 -86 -25 -187 -21 -249 10 -60 30 -92 65 -131 143 -62 124 -82 291
-78 661 2 226 5 255 31 375 60 279 145 512 297 820 162 329 353 606 557 809
184 182 381 307 537 340 86 18 117 19 186 6z m2899 -255 c182 -56 314 -163
389 -315 96 -197 95 -413 -4 -615 -68 -141 -166 -231 -311 -287 -53 -21 -74
-23 -204 -21 -241 2 -380 51 -506 177 -110 110 -158 231 -158 396 -1 321 204
602 491 675 72 18 226 13 303 -10z m-974 -1300 c141 -36 215 -75 299 -159 130
-131 181 -277 172 -491 -9 -196 -60 -319 -187 -445 -119 -119 -233 -163 -420
-163 -135 1 -207 15 -299 58 -251 120 -378 448 -297 769 92 362 366 524 732
431z m-5821 -930 c181 -381 226 -466 359 -675 317 -496 529 -779 779 -1037
403 -416 855 -610 1597 -685 180 -18 671 -15 910 6 356 31 786 92 1157 166 81
16 149 28 150 27 3 -4 -350 -649 -466 -852 -437 -760 -801 -1295 -1170 -1720
-724 -835 -1329 -1316 -2151 -1707 -161 -77 -500 -228 -511 -228 -25 0 -225
459 -336 770 -269 753 -435 1558 -517 2505 -8 94 -18 226 -22 295 -3 69 -8
134 -10 144 -2 10 -9 221 -15 469 -10 352 -10 568 0 992 7 298 14 555 16 571
1 16 6 106 9 199 8 207 31 652 48 909 11 187 11 188 29 155 9 -19 74 -155 144
-304z"/>
<path d="M27955 40097 c-101 -38 -177 -87 -256 -167 -234 -235 -252 -601 -36
-747 68 -46 127 -55 307 -48 263 11 358 42 453 145 130 140 149 368 47 571
-36 70 -127 171 -187 206 -62 36 -156 63 -216 62 -29 0 -79 -10 -112 -22z
m319 -302 c35 -23 61 -61 76 -111 28 -92 -51 -160 -177 -152 -59 4 -69 7 -94
36 -68 76 -10 238 91 254 32 5 70 -5 104 -27z"/>
<path d="M25460 34659 c-85 -39 -243 -106 -350 -149 -469 -188 -726 -329 -900
-497 -169 -162 -225 -315 -189 -519 18 -105 36 -108 198 -34 167 75 636 311
781 392 280 157 468 310 580 473 42 61 149 275 155 312 4 18 -1 39 -14 61 -33
51 -75 45 -261 -39z"/>
<path d="M26275 27490 c-165 -26 -347 -55 -405 -64 -134 -21 -382 -59 -578
-90 -84 -14 -160 -30 -168 -36 -17 -15 -19 -93 -3 -138 7 -22 22 -35 50 -46
70 -28 109 -28 274 -2 174 29 244 40 525 85 102 17 286 46 410 66 123 20 230
41 237 46 27 23 35 76 19 131 -15 53 -41 99 -54 97 -4 -1 -142 -23 -307 -49z"/>
<path d="M26505 27189 c-60 -10 -137 -23 -170 -28 -74 -11 -624 -99 -914 -147
-118 -19 -220 -39 -227 -45 -32 -26 -24 -95 23 -201 22 -49 30 -58 52 -59 14
0 35 -2 46 -4 23 -5 72 2 320 43 99 17 239 40 310 51 72 12 209 35 305 52 96
17 249 43 340 58 190 30 190 30 190 137 0 52 -4 67 -30 102 -50 70 -63 72
-245 41z"/>
<path d="M21910 26815 c-113 -18 -239 -38 -280 -44 -41 -7 -115 -18 -165 -26
-49 -8 -196 -31 -325 -50 -129 -20 -240 -38 -246 -40 -16 -5 1 -117 25 -164
11 -21 33 -50 50 -63 l30 -25 88 13 c48 8 201 32 338 54 138 23 322 52 410 66
267 42 276 44 298 82 25 42 33 136 15 186 -7 22 -17 40 -23 42 -5 1 -102 -13
-215 -31z"/>
<path d="M26715 26834 c-110 -20 -395 -69 -778 -134 -657 -111 -629 -106 -645
-126 -18 -24 -11 -90 18 -166 29 -79 54 -108 93 -108 35 0 210 32 297 55 30 8
119 23 196 34 78 11 171 27 205 35 35 8 102 21 149 30 224 40 311 55 385 66
44 6 98 18 120 25 22 7 66 21 97 29 67 19 75 34 58 107 -15 63 -83 169 -107
168 -10 -1 -49 -7 -88 -15z"/>
<path d="M22015 26464 c-27 -7 -65 -14 -84 -14 -32 0 -89 -9 -496 -75 -82 -13
-212 -34 -287 -46 -75 -12 -141 -25 -147 -28 -6 -4 -13 -38 -17 -76 -11 -126
27 -201 117 -226 57 -15 166 -3 389 44 91 19 208 40 260 46 52 7 157 21 232
33 l137 21 11 51 c20 93 31 190 24 221 -14 65 -44 76 -139 49z"/>
<path d="M26160 26337 c-426 -78 -779 -146 -783 -152 -12 -16 3 -115 25 -168
26 -61 59 -87 109 -87 58 0 215 25 479 76 129 25 294 56 365 70 72 14 162 31
200 39 39 8 144 28 235 46 171 32 202 43 234 78 17 18 18 26 8 59 -6 20 -14
50 -17 66 -8 40 -54 116 -68 115 -7 0 -361 -64 -787 -142z"/>
<path d="M26875 26080 c-162 -32 -1126 -218 -1310 -252 -33 -7 -66 -16 -74
-22 -19 -14 -8 -104 21 -187 l23 -64 45 1 c25 1 358 66 740 143 382 78 722
147 755 153 86 15 91 22 76 104 -13 74 -55 165 -74 163 -6 -1 -97 -18 -202
-39z"/>
<path d="M22095 26044 c-5 -2 -145 -26 -310 -54 -801 -136 -719 -118 -723
-158 -3 -30 34 -194 56 -253 12 -31 54 -41 114 -27 22 4 44 5 50 2 6 -4 8 -3
5 3 -6 10 80 25 223 38 95 10 226 34 264 50 19 8 87 24 153 35 202 36 189 29
207 110 18 78 21 196 6 234 -9 24 -21 30 -45 20z"/>
<path d="M21657 25520 c-264 -48 -483 -92 -489 -98 -23 -23 -10 -110 33 -212
23 -56 48 -104 55 -107 15 -6 801 145 829 159 40 21 76 63 86 103 18 64 -4
247 -28 244 -5 -1 -223 -41 -486 -89z"/>
<path d="M22060 25155 c-36 -8 -162 -33 -280 -55 -118 -23 -282 -54 -365 -71
-82 -16 -151 -29 -152 -29 -9 0 -1 -179 9 -212 14 -46 60 -100 80 -93 7 3 182
39 388 80 255 52 380 81 393 93 52 45 70 151 44 252 -14 53 -21 55 -117 35z"/>
<path d="M18798 21806 c-72 -25 -173 -92 -224 -148 -185 -201 -317 -554 -369
-983 -19 -161 -20 -258 -8 -545 8 -196 12 -230 30 -265 26 -50 51 -73 93 -85
29 -8 39 -5 104 37 389 254 760 607 990 942 84 122 194 318 211 375 58 196
-52 450 -250 575 -35 23 -113 57 -172 78 -95 32 -122 37 -223 40 -102 3 -123
1 -182 -21z"/>
<path d="M17418 39613 l-588 -496 43 -51 c301 -357 509 -604 642 -761 203
-240 1031 -1221 1189 -1409 65 -77 152 -186 193 -241 41 -55 79 -104 83 -109
5 -4 62 30 127 76 381 274 770 517 1109 695 l112 58 -295 350 c-162 193 -341
404 -397 470 -56 66 -311 368 -566 670 -944 1118 -1051 1245 -1058 1245 -4 -1
-271 -224 -594 -497z"/>
<path d="M15028 37597 c-58 -51 -320 -272 -582 -492 -261 -220 -475 -403 -475
-406 -1 -4 30 -42 67 -85 37 -44 214 -252 392 -464 309 -367 441 -523 894
-1060 109 -129 361 -427 559 -663 199 -235 364 -426 368 -425 4 2 78 82 164
178 212 235 680 724 810 844 l104 97 -147 172 c-81 95 -190 224 -244 287 -53
63 -185 221 -295 350 -1191 1412 -1487 1760 -1497 1760 -6 -1 -59 -42 -118
-93z"/>
<path d="M21075 37473 c-103 -23 -338 -113 -545 -208 -924 -424 -2234 -1416
-3309 -2505 -150 -152 -371 -381 -436 -450 -39 -42 -95 -102 -126 -135 -272
-294 -656 -746 -936 -1105 -176 -227 -455 -602 -450 -607 2 -1 90 29 195 68
l190 71 89 116 c552 730 1148 1400 1864 2097 1010 982 2119 1810 2969 2216 69
32 146 69 171 82 44 21 90 68 312 313 27 30 45 53 40 53 -4 -1 -17 -3 -28 -6z"/>
<path d="M20310 36681 c-203 -116 -336 -198 -553 -343 -149 -99 -453 -313
-480 -338 -4 -4 2 -40 14 -81 15 -54 22 -112 26 -214 4 -126 2 -150 -21 -238
-47 -182 -150 -350 -318 -518 -128 -128 -248 -217 -383 -283 -140 -69 -220
-89 -355 -89 -91 0 -117 4 -200 32 -52 18 -132 52 -176 76 l-82 44 -300 -302
c-266 -268 -412 -422 -725 -767 l-87 -95 47 -43 c133 -123 331 -265 485 -347
l87 -46 134 30 c155 36 319 56 567 71 258 16 223 -5 305 178 459 1033 1202
2193 2058 3215 101 120 122 147 115 147 -2 0 -73 -40 -158 -89z"/>
<path d="M12715 35354 c-275 -43 -616 -178 -910 -361 -376 -234 -794 -567
-1058 -842 -499 -521 -762 -997 -833 -1506 -22 -160 -14 -436 15 -577 45 -208
145 -436 283 -643 63 -94 72 -104 87 -92 19 16 926 781 1073 905 l98 83 -30
44 c-43 63 -114 209 -138 285 -79 248 -30 478 157 727 138 185 449 440 658
539 313 148 599 77 844 -209 153 -179 175 -312 91 -527 -78 -197 -232 -400
-593 -780 -400 -421 -674 -748 -876 -1050 -186 -276 -297 -579 -310 -849 -7
-130 -14 -127 86 -43 280 237 827 585 1361 866 25 12 56 49 103 121 92 139
204 278 401 494 329 362 469 560 521 739 l22 74 204 -242 c175 -207 253 -306
329 -418 l15 -22 75 33 c41 18 184 78 318 132 l243 98 147 206 c81 113 199
276 263 362 65 86 123 165 130 176 13 22 63 -40 -880 1078 -598 709 -672 794
-741 858 -278 257 -542 359 -925 356 -77 -1 -180 -8 -230 -15z"/>
<path d="M6628 33321 c-726 -612 -867 -731 -871 -738 -3 -5 43 -65 102 -134
143 -170 431 -511 1366 -1619 434 -514 922 -1092 1085 -1285 163 -192 734
-870 1270 -1505 535 -635 1023 -1213 1084 -1285 60 -71 111 -132 112 -134 2
-2 87 68 191 156 358 303 649 548 818 690 94 79 170 148 170 153 0 5 -140 175
-310 377 -261 309 -820 971 -1805 2138 -102 121 -368 436 -591 700 -222 264
-490 581 -595 705 -104 124 -349 414 -544 645 -195 231 -426 506 -515 610 -89
105 -259 307 -380 450 -120 143 -233 276 -251 296 l-32 36 -304 -256z"/>
<path d="M46119 32477 c-170 -146 -886 -751 -927 -784 l-23 -18 173 -206 173
-206 230 -7 c475 -13 837 -50 1644 -166 117 -17 215 -29 217 -27 2 2 -60 80
-139 173 -79 93 -374 442 -656 777 -282 334 -516 607 -519 606 -4 0 -82 -64
-173 -142z"/>
<path d="M44768 31183 c6 -2 18 -2 25 0 6 3 1 5 -13 5 -14 0 -19 -2 -12 -5z"/>
<path d="M44660 31165 c-60 -17 -29 -18 40 0 30 7 44 13 30 13 -14 0 -45 -6
-70 -13z"/>
<path d="M44588 31143 c7 -3 16 -2 19 1 4 3 -2 6 -13 5 -11 0 -14 -3 -6 -6z"/>
<path d="M44395 31079 c-218 -88 -493 -264 -680 -434 -49 -45 -49 -46 -20 -41
17 3 109 14 205 26 344 41 421 59 478 113 29 27 66 97 82 156 12 46 41 214 37
218 -2 1 -48 -16 -102 -38z"/>
<path d="M4422 30935 c-509 -65 -1022 -339 -1692 -904 -107 -91 -350 -296
-539 -455 -382 -323 -766 -647 -1121 -946 -129 -109 -345 -292 -480 -406 -135
-114 -320 -270 -413 -347 -92 -77 -167 -143 -167 -147 0 -5 164 -200 1375
-1635 504 -597 703 -832 1144 -1355 179 -212 445 -527 591 -700 146 -173 632
-749 1079 -1280 448 -531 819 -971 825 -978 9 -9 115 76 482 385 259 219 598
506 755 638 156 131 383 323 504 425 250 212 793 670 1066 900 223 188 377
335 519 497 397 452 634 909 722 1396 29 161 31 479 4 632 -60 344 -178 618
-389 905 -336 457 -769 770 -1222 883 -265 67 -487 71 -774 16 -110 -21 -372
-104 -441 -139 -48 -25 -50 -16 -16 61 13 30 42 110 64 179 224 690 68 1268
-496 1838 -303 305 -613 475 -972 532 -115 18 -289 20 -408 5z m-24 -1691
c158 -33 274 -99 410 -236 422 -425 428 -872 16 -1326 -47 -53 -1417 -1220
-1461 -1246 -10 -5 -20 -3 -28 5 -68 74 -1155 1373 -1153 1378 5 11 47 47 667
570 660 557 669 564 806 654 284 185 516 248 743 201z m2217 -2149 c33 -9 101
-36 150 -60 282 -138 585 -486 665 -765 28 -97 37 -256 20 -357 -36 -225 -172
-456 -404 -688 -61 -61 -365 -325 -676 -587 -311 -261 -635 -534 -720 -607
-85 -72 -158 -131 -162 -131 -4 0 -91 100 -194 223 -104 122 -234 276 -290
342 -343 403 -894 1060 -894 1065 0 5 190 167 1126 956 177 150 350 294 385
322 190 148 429 261 619 292 41 6 82 13 90 15 34 9 229 -6 285 -20z"/>
<path d="M32463 30328 c-17 -22 -23 -79 -13 -119 19 -68 41 -78 480 -204 1464
-420 2466 -679 2844 -735 287 -43 -120 126 -899 373 -432 137 -422 134 -980
298 -612 179 -561 164 -820 237 -658 186 -596 171 -612 150z"/>
<path d="M48673 29108 c-212 -17 -372 -78 -868 -329 l-410 -207 -7 -153 c-9
-212 -47 -358 -138 -527 -114 -210 -352 -437 -579 -552 -266 -134 -626 -132
-951 5 -224 95 -438 250 -674 490 -268 272 -494 621 -587 908 -24 75 -36 97
-50 97 -10 0 -84 -11 -166 -25 -198 -34 -469 -102 -688 -173 -113 -37 -250
-73 -370 -97 -104 -20 -194 -40 -198 -44 -19 -18 65 -329 140 -521 64 -165
189 -415 280 -561 169 -270 329 -467 582 -719 419 -418 816 -678 1251 -819
218 -71 411 -101 645 -101 525 0 981 172 1446 545 412 331 703 776 796 1215
19 94 25 391 10 534 -6 49 -5 77 1 75 5 -2 36 -35 69 -74 545 -643 587 -697
676 -873 61 -120 105 -238 133 -357 15 -62 19 -118 18 -250 0 -156 -2 -177
-27 -258 -52 -170 -145 -320 -293 -476 -240 -252 -534 -427 -818 -485 -217
-45 -444 6 -664 152 -47 31 -55 33 -70 20 -9 -8 -204 -172 -432 -364 -694
-585 -720 -607 -720 -615 0 -15 166 -160 255 -224 247 -177 509 -267 855 -296
579 -49 1291 212 1890 692 449 359 828 783 1028 1149 112 205 230 524 279 755
26 123 27 144 27 385 0 239 -2 263 -27 383 -15 71 -43 177 -62 235 -62 192
-233 507 -406 748 -82 114 -407 508 -458 555 -35 32 -203 99 -326 129 -103 26
-273 38 -392 28z"/>
<path d="M40795 28093 c-44 -9 -81 -17 -83 -18 -2 -2 27 -47 64 -102 87 -128
127 -213 132 -284 4 -51 2 -58 -23 -77 -24 -19 -41 -22 -116 -22 -114 0 -217
27 -649 168 -456 149 -404 140 -590 105 l-155 -30 40 -17 c22 -10 119 -49 215
-88 675 -272 1116 -356 1320 -253 123 62 163 198 101 343 -75 176 -141 293
-163 291 -7 -1 -49 -8 -93 -16z"/>
<path d="M41207 27674 c-13 -183 -114 -302 -297 -349 -53 -14 -95 -16 -230
-12 -180 6 -290 25 -518 91 l-122 36 -68 -42 c-364 -222 -750 -524 -1037 -812
-318 -319 -524 -594 -675 -901 -157 -319 -220 -575 -220 -892 0 -361 85 -633
300 -962 72 -110 82 -122 97 -109 10 7 117 96 238 198 696 586 925 782 925
789 0 5 -24 49 -53 99 -72 122 -114 233 -134 354 -16 93 -16 109 -1 192 43
249 201 482 481 707 340 274 579 361 821 299 134 -34 246 -109 369 -247 149
-167 185 -288 137 -461 -23 -83 -82 -206 -145 -302 -73 -109 -247 -320 -382
-461 -229 -240 -296 -312 -413 -444 -391 -441 -627 -772 -743 -1045 -90 -213
-127 -385 -127 -597 0 -414 161 -766 520 -1137 238 -247 474 -387 776 -463
101 -25 125 -27 314 -28 235 0 314 12 514 76 152 48 400 171 556 275 437 290
862 758 1080 1189 103 203 183 474 206 698 3 37 9 67 13 67 4 0 25 -18 46 -41
95 -97 363 -296 388 -286 7 2 192 157 412 342 220 186 486 410 591 499 l191
161 -77 36 c-95 45 -173 97 -291 195 -112 94 -340 321 -480 479 -86 98 -747
879 -1429 1689 -75 89 -246 292 -380 451 -342 406 -452 510 -653 616 -141 74
-241 103 -458 132 l-36 5 -6 -84z m919 -2795 c349 -415 456 -592 515 -859 54
-244 -8 -554 -153 -769 -167 -247 -527 -540 -774 -630 -167 -61 -318 -63 -463
-7 -177 70 -374 283 -442 478 -116 335 35 676 542 1223 328 353 494 591 540
773 10 41 15 50 25 40 6 -7 101 -119 210 -249z"/>
<path d="M40750 27720 c-12 -8 -10 -10 8 -10 13 0 20 4 17 10 -7 12 -6 12 -25
0z"/>
<path d="M34693 25648 c-203 -172 -467 -395 -586 -496 l-218 -183 30 -37 c16
-20 206 -246 423 -502 216 -256 474 -562 573 -680 178 -211 471 -558 692 -819
63 -74 110 -138 106 -142 -4 -4 -48 3 -98 17 -268 72 -565 70 -859 -6 -151
-39 -238 -71 -391 -144 -244 -117 -415 -238 -629 -446 -153 -149 -232 -243
-337 -399 -315 -467 -436 -1085 -333 -1692 197 -1163 1229 -2359 2374 -2751
548 -188 1125 -172 1640 44 187 79 420 221 600 364 202 162 425 403 553 599
74 113 178 325 212 430 69 217 91 466 61 693 -6 51 -10 95 -7 97 13 13 -3 30
405 -452 38 -46 71 -83 73 -83 2 0 245 204 540 453 294 248 547 461 561 473
l25 21 -379 449 c-209 247 -454 537 -544 644 -90 107 -297 353 -460 545 -163
193 -502 595 -755 895 -252 300 -482 572 -510 605 -29 33 -118 139 -199 235
-151 179 -322 382 -996 1180 -379 449 -551 653 -969 1148 -117 138 -216 252
-221 252 -4 0 -173 -141 -377 -312z m1291 -3642 c324 -72 597 -237 925 -559
338 -333 625 -757 744 -1104 66 -188 82 -286 81 -483 -1 -156 -4 -186 -27
-273 -55 -206 -164 -384 -335 -549 -124 -119 -237 -200 -366 -263 -161 -78
-244 -97 -454 -102 -203 -6 -300 8 -484 67 -276 91 -528 254 -802 520 -374
365 -654 824 -747 1229 -26 111 -36 349 -20 459 37 253 141 460 329 654 222
229 468 371 717 414 100 17 342 11 439 -10z"/>
<path d="M31071 19389 c-297 -26 -604 -125 -905 -291 -498 -274 -986 -686
-1364 -1151 -169 -207 -343 -514 -416 -735 -68 -202 -80 -282 -80 -512 0 -217
12 -306 64 -461 74 -222 243 -488 435 -688 216 -224 422 -327 734 -368 269
-34 589 26 966 182 158 65 516 239 815 395 345 180 734 356 958 434 152 53
247 69 366 64 92 -4 109 -8 181 -43 94 -45 170 -117 228 -216 60 -101 72 -155
71 -304 0 -115 -3 -139 -28 -210 -115 -333 -430 -663 -805 -841 -175 -84 -350
-121 -523 -111 -226 12 -405 93 -562 252 -31 31 -60 55 -65 53 -5 -1 -105 -84
-222 -183 -117 -99 -364 -307 -549 -463 -184 -155 -336 -289 -338 -296 -4 -17
196 -209 300 -287 166 -127 323 -211 498 -267 574 -184 1162 -95 1800 271 520
299 1006 720 1375 1192 215 276 380 614 445 912 59 273 50 582 -26 846 -111
391 -462 849 -789 1032 -86 49 -225 98 -355 125 -147 32 -385 32 -557 2 -306
-55 -580 -160 -1088 -418 -165 -84 -367 -189 -450 -234 -214 -116 -532 -271
-657 -319 -150 -58 -255 -82 -388 -88 -101 -5 -123 -3 -179 17 -35 12 -83 34
-106 50 -65 45 -141 134 -177 208 -30 62 -33 75 -32 162 0 202 104 380 349
604 379 346 767 496 1040 402 97 -33 206 -99 285 -173 59 -55 60 -55 83 -36
120 96 1097 927 1097 934 0 4 -44 47 -97 95 -327 289 -641 428 -1048 463 -133
12 -149 12 -284 0z"/>
<path d="M26410 15610 c-391 -48 -747 -217 -1160 -551 -266 -216 -460 -458
-610 -764 -166 -339 -222 -684 -170 -1045 7 -50 6 -68 -4 -78 -13 -13 -25 0
-455 510 -64 76 -66 77 -86 59 -17 -15 -409 -346 -953 -804 l-152 -128 73 -87
c194 -231 975 -1155 1162 -1377 375 -444 957 -1134 1540 -1825 751 -891 856
-1014 866 -1018 4 -2 151 118 326 265 175 148 437 369 583 492 146 123 266
227 268 232 2 5 -155 196 -349 426 -194 230 -488 578 -653 773 -165 195 -383
454 -486 575 -593 702 -645 769 -788 1015 -147 252 -224 517 -208 710 20 245
137 467 361 685 270 264 547 388 793 354 222 -31 454 -167 716 -419 131 -127
189 -194 1790 -2095 269 -319 494 -586 500 -593 9 -9 136 92 576 464 311 262
577 488 592 502 l26 27 -225 265 c-226 266 -454 536 -963 1140 -151 179 -335
397 -409 485 -75 88 -257 304 -405 480 -285 339 -294 348 -453 520 -111 120
-287 283 -428 396 -251 201 -523 336 -785 389 -114 23 -323 33 -430 20z"/>
<path d="M20094 13324 c-219 -185 -466 -393 -549 -462 -82 -69 -169 -142 -191
-163 l-42 -37 395 -469 c217 -257 403 -476 412 -486 17 -17 34 -4 387 294 203
172 469 396 590 498 l221 186 -27 35 c-25 32 -215 256 -642 763 -83 97 -151
177 -153 177 -1 0 -182 -151 -401 -336z"/>
<path d="M21704 11867 c-99 -84 -366 -309 -593 -501 l-412 -348 19 -22 c10
-11 190 -223 398 -471 501 -593 887 -1052 1059 -1255 77 -91 591 -700 1143
-1355 552 -654 1009 -1194 1016 -1199 10 -7 124 84 402 320 214 180 477 402
584 493 107 90 196 168 198 172 2 4 -83 110 -189 236 -106 125 -364 431 -573
678 -209 248 -475 563 -591 700 -116 138 -298 354 -405 480 -348 412 -1872
2218 -1874 2222 -1 1 -83 -66 -182 -150z"/>
<path d="M14295 8429 c-495 -418 -939 -793 -987 -832 -48 -40 -87 -74 -87 -77
-1 -3 117 -145 260 -315 144 -171 303 -358 352 -418 50 -59 93 -104 97 -100 4
5 27 58 53 119 158 380 420 904 808 1619 292 538 412 765 407 765 -2 0 -408
-343 -903 -761z"/>
<path d="M21075 7903 c-211 -28 -357 -56 -568 -108 -183 -46 -582 -157 -588
-164 -4 -3 24 -49 62 -101 251 -345 404 -683 481 -1064 31 -149 33 -502 5
-636 -78 -367 -266 -695 -559 -976 -77 -73 -1260 -1076 -1277 -1082 -4 -1
-208 235 -453 525 -245 291 -559 663 -699 828 -320 379 -537 637 -709 842 -74
89 -137 162 -140 162 -15 2 -368 -265 -555 -420 -213 -177 -502 -485 -654
-700 l-39 -55 231 -275 c128 -151 342 -405 477 -565 568 -672 1713 -2030 1915
-2270 119 -142 223 -265 230 -272 10 -11 74 39 341 264 181 153 502 424 714
603 212 179 498 420 635 536 138 116 408 344 601 507 510 430 650 563 853 808
404 485 653 1063 726 1679 30 259 16 637 -35 918 -59 326 -237 847 -300 880
-14 7 -96 42 -183 78 l-158 65 -162 -1 c-89 -1 -175 -4 -192 -6z"/>
</g>
</svg>
